<?xml version="1.0" encoding="UTF-8" standalone="no"?><svg xmlns="http://www.w3.org/2000/svg" viewBox="0 0 270.87 42.58">
  <title>compasAsset 1</title>
  <g id="Layer_2" data-name="Layer 2">
    <g id="Layer_1-2" data-name="Layer 1">
      <g>
        <polygon points="86.63 11.36 86.63 36.7 83.12 36.7 83.12 11.36 73.06 11.36 73.06 8.5 96.68 8.5 96.68 11.36 86.63 11.36" fill="#e8e2cf"/>
        <path d="M114.86,26.93H99.17c.33,5.72,3,7.64,6.22,7.64a5.47,5.47,0,0,0,5.6-4.86h3.67c-.86,5.23-5,7.56-9.44,7.56-5.64,0-9.84-3.68-9.84-11.32,0-7,4.37-11.48,10.29-11.48S115,18.92,115,25.25A13.76,13.76,0,0,1,114.86,26.93Zm-15.64-2.7h12.17c-.32-4.49-2.24-7.07-5.8-7.07S99.62,19.62,99.22,24.23Z" fill="#e8e2cf"/>
        <path d="M131.66,33.59l-1.19,2.33A9.37,9.37,0,0,1,125,37.27c-3.92,0-7-2.17-7-6.17,0-4.91,3.68-7.44,12.18-7.44h1.39v-.57c0-.94,0-1.8-.08-2.62-.17-2-1.31-3.31-4.21-3.31s-4.42,1.6-4.66,4.58H119c.33-4.62,3.56-7.27,8.34-7.27,5.15,0,7.31,2.16,7.68,5.72.08.85.12,1.92.12,2.86v8.13a37.34,37.34,0,0,0,.41,5.52H132Zm0-5.11v-2.2c-6-.45-9.73.81-9.73,4.53,0,2.62,1.68,3.76,4.33,3.76C129.49,34.57,131.62,32.4,131.62,28.48Z" fill="#e8e2cf"/>
        <path d="M170.31,23.46V36.7H166.8V25.09a38.37,38.37,0,0,0-.16-4.21c-.33-2.45-1.88-3.63-4.33-3.63-2.74,0-4.75,2.16-4.75,8.74V36.7h-3.51V25.09a38.37,38.37,0,0,0-.16-4.21c-.33-2.45-1.88-3.63-4.33-3.63-2.74,0-4.74,2.16-4.74,8.74V36.7H141.3V15h3.52v3.14l1.38-2.45a7.1,7.1,0,0,1,4.58-1.26c3.31,0,5.44,1.67,6.25,4L159,15.73a7.1,7.1,0,0,1,4.58-1.26c3.88,0,6.09,2.28,6.58,5.27A23.33,23.33,0,0,1,170.31,23.46Z" fill="#e8e2cf"/>
        <path d="M204.31,16.31h-3.76c-.33-3.56-2.41-5.6-6-5.6-3,0-5.35,1.39-5.35,4.33s1.76,4.37,6.05,5.35c6.21,1.43,9.31,4,9.31,8.75s-4.24,8.13-9.68,8.13c-6.21,0-10.13-3.15-10.75-8.58h3.76a6.83,6.83,0,0,0,7.07,5.8c3.23,0,5.85-1.76,5.85-4.7,0-3.43-2-5-6.91-6.13s-8.46-3.15-8.46-7.8c0-4.87,4.21-7.93,9.4-7.93C200.71,7.93,203.78,11.48,204.31,16.31Z" fill="#e8e2cf"/>
        <polygon points="230.87 36.7 226.7 36.7 221.88 18.47 217.06 36.7 212.89 36.7 205.98 15.04 210.03 15.04 215.06 33.34 219.79 15.04 224.17 15.04 228.99 33.22 234.01 15.04 237.77 15.04 230.87 36.7" fill="#e8e2cf"/>
        <path d="M245.05,10.18a2.25,2.25,0,1,1-2.25-2.25A2.21,2.21,0,0,1,245.05,10.18ZM241,36.7V15h3.52V36.7Z" fill="#e8e2cf"/>
        <path d="M254.44,13.08V15.2h4.46v2.7h-4.46V36.7h-3.51V17.9H248.6V15.2h2.33V13.4c0-.81,0-1.88.12-2.61.37-3.15,2.5-4.9,5.72-4.9a15.83,15.83,0,0,1,2.5.2V9c-2.66-.49-4.42.12-4.7,1.88A19.74,19.74,0,0,0,254.44,13.08Z" fill="#e8e2cf"/>
        <path d="M266.82,30.36c0,.74,0,1.1,0,1.68.17,2.08,1,2.53,3.76,2.2v2.58a19,19,0,0,1-3,.2c-2.7,0-4.08-1.1-4.29-3.8,0-.57,0-1.47,0-2.7V17.9h-2.9V15.2h2.9v-5h3.51v5h4.05v2.7h-4.05Z" fill="#e8e2cf"/>
        <path d="M56.51,18.67V17.42H27.23A7.48,7.48,0,0,1,19.77,10,7.46,7.46,0,0,1,27.23,2.5H61.59V2.17l-.23.23.23.1V2.17l-.23.23.23-.23h-.32a.3.3,0,0,0,.09.23l.23-.23h0l-.3-.1v.1h.31l-.3-.1h0L56.2,17.65h0l.31.1v-.33a.33.33,0,0,0-.31.23l.31.1v2.17a2.17,2.17,0,0,0,2.07-1.5L63.66,2.84h0a2.19,2.19,0,0,0,.11-.67A2.2,2.2,0,0,0,63.15.65,2.22,2.22,0,0,0,61.59,0H27.23a10,10,0,0,0,0,19.92H56.51Z" fill="#e8e2cf"/>
        <path d="M7.25,23.91v1.25H36.53a7.46,7.46,0,0,1,0,14.92H2.17v.33l.24-.23-.24-.1v.33l.24-.23-.24.23H2.5a.34.34,0,0,0-.09-.23l-.24.23h0l.33.11,0-.11H2.15l.33.11h0L7.66,24.64l-.09.29-.32-.1v.33a.33.33,0,0,0,.32-.23l-.32-.1V22.66a2.17,2.17,0,0,0-2.06,1.5L.11,39.74h0a2,2,0,0,0-.11.68,2.2,2.2,0,0,0,.62,1.52,2.18,2.18,0,0,0,1.55.65H36.53a10,10,0,1,0,0-19.92H7.25Z" fill="#e8e2cf"/>
      </g>
    </g>
  </g>
</svg>
