<?xml version="1.0" encoding="UTF-8" standalone="no"?><svg id="Layer_1" data-name="Layer 1" xmlns="http://www.w3.org/2000/svg" viewBox="0 0 32 32">
  <title>Favicon-02</title>
  <g>
    <path d="M27.8,14.74h-14A4.17,4.17,0,0,1,9.6,10.57h0A4.17,4.17,0,0,1,13.77,6.4H30.23a.44.44,0,0,1,.42.58l-2.43,7.46A.44.44,0,0,1,27.8,14.74Z" fill="#af9f89"/>
    <path d="M4.2,17.26h14a4.18,4.18,0,0,1,4.17,4.17h0a4.19,4.19,0,0,1-4.17,4.17H1.77A.44.44,0,0,1,1.35,25l2.43-7.46A.44.44,0,0,1,4.2,17.26Z" fill="#af9f89"/>
  </g>
</svg>
